<svg xmlns="http://www.w3.org/2000/svg" width="73" height="24" viewBox="0 0 73 24">
  <g fill="none" fill-rule="evenodd">
    <polygon fill="#FFF" points="31.681 23.172 25.785 23.172 29.473 .348 35.368 .348"/>
    <path fill="#FFF" d="M53.1384248,0.976514808 C51.9699186,0.512418929 50.1165713,0 47.8249126,0 C41.9746068,0 37.8548693,3.12316094 37.8296008,7.58834057 C37.7810075,10.8827402 40.7792123,12.7125299 43.0216298,13.8109874 C45.3136124,14.9334443 46.0927245,15.6660737 46.0927245,16.6665878 C46.0693998,18.203196 44.240673,18.9115016 42.5350492,18.9115016 C40.1698527,18.9115016 38.9025402,18.5463221 36.9766269,17.6914257 L36.196543,17.3249489 L35.3675418,22.4737862 C36.7569854,23.1074992 39.3168789,23.6698627 41.9746068,23.6945107 C48.190658,23.6945107 52.2375056,20.6196728 52.2854509,15.8613118 C52.3090997,13.2502454 50.7259309,11.2495414 47.3127396,9.61466555 C45.2407225,8.5651797 43.9717902,7.85752267 43.9717902,6.78371313 C43.9960869,5.80752264 45.0450536,4.80765709 47.3840097,4.80765709 C49.309923,4.75868541 50.724959,5.22213266 51.7969266,5.68590422 L52.3327484,5.92946537 L53.1384248,0.976514808 Z"/>
    <path fill="#FFF" fill-rule="nonzero" d="M60.909326,15.0865304 C61.397151,13.7753384 63.274273,8.70064149 63.274273,8.70064149 C63.249655,8.74937148 63.7611262,7.36524587 64.0536268,6.51553668 L64.4675978,8.48216328 C64.4675978,8.48216328 65.5893361,13.9454094 65.8329247,15.0865304 C64.9071586,15.0865304 62.0793285,15.0865304 60.909326,15.0865304 Z M68.221194,0.348448687 L63.6393319,0.348448687 C62.2263886,0.348448687 61.1529146,0.760878748 60.5432953,2.24214164 L51.7446301,23.1718377 L57.9600256,23.1718377 C57.9600256,23.1718377 58.9832919,20.3548565 59.2032343,19.7481519 C59.8850879,19.7481519 65.9313967,19.7481519 66.8085746,19.7481519 C66.9786331,20.5494538 67.5153702,23.1718377 67.5153702,23.1718377 L73,23.1718377 L68.221194,0.348448687 Z"/>
    <path fill="#FFF" d="M20.7355499,0.348448687 L14.9292966,15.9283377 L14.2948202,12.7685539 C13.2213652,9.12257494 9.85478227,5.161296 6.09785203,3.19164034 L11.4161713,23.1718377 L17.6857188,23.1718377 L27.0047733,0.348448687 L20.7355499,0.348448687 Z"/>
    <path fill="#BCBCBC" d="M9.56470298,0.348448687 L0.0968601958,0.348448687 L0,0.808190883 C7.38550948,2.69638329 12.2767885,7.24779885 14.2863962,12.7183771 L12.2281975,2.26109204 C11.8893477,0.80786916 10.8480201,0.396385417 9.56470298,0.348448687 Z"/>
  </g>
</svg>
